<svg width="1600" height="760" viewBox="0 0 1600 760" fill="none" xmlns="http://www.w3.org/2000/svg">
  <rect width="1600" height="760" rx="32" fill="#F6F2EA"/>
  <rect x="24" y="24" width="1552" height="712" rx="24" stroke="#CCD4DC" stroke-width="2"/>
  <path d="M92 118H1508" stroke="#DDE3E9" stroke-width="1.5"/>
  <path d="M92 382H1508" stroke="#DDE3E9" stroke-width="1.5"/>
  <path d="M468 72V688" stroke="#DDE3E9" stroke-width="1.5"/>
  <path d="M1090 72V688" stroke="#DDE3E9" stroke-width="1.5"/>

  <text x="94" y="104" fill="#6A7785" font-family="Inter, Arial, sans-serif" font-size="18" letter-spacing="4">FOLIO / ATLAS / 02</text>

  <g>
    <text x="110" y="194" fill="#1D2733" font-family="Georgia, 'Times New Roman', serif" font-size="56">visual systems</text>
    <text x="110" y="256" fill="#2B3948" font-family="Inter, Arial, sans-serif" font-size="28">geometric linework, tonal restraint,</text>
    <text x="110" y="296" fill="#2B3948" font-family="Inter, Arial, sans-serif" font-size="28">spacing that lets the page breathe.</text>
    <path d="M110 356H374" stroke="#8DA0B3" stroke-width="3"/>
    <path d="M110 404H320" stroke="#D2D9E0" stroke-width="2"/>
    <path d="M110 444H352" stroke="#D2D9E0" stroke-width="2"/>
    <path d="M110 484H286" stroke="#D2D9E0" stroke-width="2"/>
    <circle cx="364" cy="356" r="14" fill="#7B8FA4"/>
    <rect x="110" y="548" width="272" height="96" rx="24" fill="#FBF8F2" stroke="#C9D1DA" stroke-width="2"/>
    <text x="138" y="606" fill="#6A7785" font-family="Inter, Arial, sans-serif" font-size="20" letter-spacing="3">quiet, precise, composed</text>
  </g>

  <g>
    <text x="532" y="194" fill="#1D2733" font-family="Georgia, 'Times New Roman', serif" font-size="56">build shape</text>
    <text x="532" y="256" fill="#2B3948" font-family="Inter, Arial, sans-serif" font-size="28">interfaces with readable structure,</text>
    <text x="532" y="296" fill="#2B3948" font-family="Inter, Arial, sans-serif" font-size="28">playful edges, and controlled cues.</text>
    <rect x="704" y="360" width="212" height="52" rx="26" fill="#FBF8F2" stroke="#9FAFBE" stroke-width="2"/>
    <rect x="586" y="438" width="148" height="52" rx="26" fill="#7B8FA4"/>
    <rect x="758" y="438" width="194" height="52" rx="26" fill="#EEF2F5" stroke="#C9D1DA" stroke-width="2"/>
    <rect x="620" y="542" width="302" height="102" rx="28" fill="#FBF8F2" stroke="#C9D1DA" stroke-width="2"/>
    <path d="M650 576H892" stroke="#D2D9E0" stroke-width="2"/>
    <path d="M650 608H854" stroke="#D2D9E0" stroke-width="2"/>
  </g>

  <g>
    <text x="1156" y="194" fill="#1D2733" font-family="Georgia, 'Times New Roman', serif" font-size="56">reverse read</text>
    <text x="1156" y="256" fill="#2B3948" font-family="Inter, Arial, sans-serif" font-size="28">runtime truth first, traces next,</text>
    <text x="1156" y="296" fill="#2B3948" font-family="Inter, Arial, sans-serif" font-size="28">then the quieter map underneath.</text>
    <circle cx="1302" cy="474" r="92" stroke="#243242" stroke-width="3"/>
    <circle cx="1302" cy="474" r="58" stroke="#7B8FA4" stroke-width="3"/>
    <circle cx="1302" cy="474" r="24" fill="#7B8FA4"/>
    <path d="M1210 474H1394" stroke="#D2D9E0" stroke-width="2"/>
    <path d="M1302 382V566" stroke="#D2D9E0" stroke-width="2"/>
    <path d="M1234 406L1370 542" stroke="#DEE4E9" stroke-width="2"/>
    <path d="M1370 406L1234 542" stroke="#DEE4E9" stroke-width="2"/>
  </g>
</svg>
