<svg width="1600" height="480" viewBox="0 0 1600 480" fill="none" xmlns="http://www.w3.org/2000/svg">
  <defs>
    <linearGradient id="bgGrad" x1="120" y1="40" x2="1500" y2="460" gradientUnits="userSpaceOnUse">
      <stop stop-color="#040711" />
      <stop offset="0.52" stop-color="#0B1220" />
      <stop offset="1" stop-color="#120A28" />
    </linearGradient>
    <linearGradient id="lineGrad" x1="268" y1="102" x2="1290" y2="390" gradientUnits="userSpaceOnUse">
      <stop stop-color="#7AF7F4" />
      <stop offset="0.5" stop-color="#9D7CFF" />
      <stop offset="1" stop-color="#FFB86C" />
    </linearGradient>
    <radialGradient id="glowA" cx="0" cy="0" r="1" gradientUnits="userSpaceOnUse" gradientTransform="translate(1240 120) rotate(117.441) scale(260 380)">
      <stop stop-color="#7AF7F4" stop-opacity="0.42" />
      <stop offset="1" stop-color="#7AF7F4" stop-opacity="0" />
    </radialGradient>
    <radialGradient id="glowB" cx="0" cy="0" r="1" gradientUnits="userSpaceOnUse" gradientTransform="translate(360 360) rotate(32.829) scale(310 220)">
      <stop stop-color="#9D7CFF" stop-opacity="0.34" />
      <stop offset="1" stop-color="#9D7CFF" stop-opacity="0" />
    </radialGradient>
    <filter id="softBlur" x="-100" y="-100" width="1800" height="680" filterUnits="userSpaceOnUse">
      <feGaussianBlur stdDeviation="28" />
    </filter>
    <filter id="neonBlur" x="0" y="0" width="1600" height="480" filterUnits="userSpaceOnUse">
      <feGaussianBlur stdDeviation="3.4" />
    </filter>
    <pattern id="grid" width="36" height="36" patternUnits="userSpaceOnUse">
      <path d="M36 0H0V36" stroke="#4B5563" stroke-opacity="0.2" stroke-width="1" />
    </pattern>
  </defs>

  <rect width="1600" height="480" rx="28" fill="url(#bgGrad)" />
  <rect width="1600" height="480" rx="28" fill="url(#grid)" opacity="0.42" />
  <rect x="10" y="10" width="1580" height="460" rx="22" stroke="url(#lineGrad)" stroke-opacity="0.72" stroke-width="2" />

  <g filter="url(#softBlur)">
    <circle cx="1240" cy="116" r="132" fill="url(#glowA)" />
    <circle cx="346" cy="354" r="142" fill="url(#glowB)" />
  </g>

  <path d="M70 398C210 342 266 300 366 234C468 166 586 136 808 126C1058 114 1216 166 1528 74" stroke="url(#lineGrad)" stroke-opacity="0.24" stroke-width="3" />
  <path d="M84 420C254 364 354 280 490 250C620 220 772 252 914 284C1116 330 1278 320 1510 238" stroke="#7AF7F4" stroke-opacity="0.12" stroke-width="2" />

  <g opacity="0.7">
    <path d="M80 76H210" stroke="#7AF7F4" stroke-width="4" stroke-linecap="round" />
    <path d="M80 76V116" stroke="#7AF7F4" stroke-width="4" stroke-linecap="round" />
    <path d="M1390 76H1520" stroke="#FFB86C" stroke-width="4" stroke-linecap="round" />
    <path d="M1520 76V116" stroke="#FFB86C" stroke-width="4" stroke-linecap="round" />
    <path d="M80 364V404" stroke="#9D7CFF" stroke-width="4" stroke-linecap="round" />
    <path d="M80 404H210" stroke="#9D7CFF" stroke-width="4" stroke-linecap="round" />
    <path d="M1390 404H1520" stroke="#7AF7F4" stroke-width="4" stroke-linecap="round" />
    <path d="M1520 364V404" stroke="#7AF7F4" stroke-width="4" stroke-linecap="round" />
  </g>

  <g opacity="0.22" fill="#D1D5DB" font-family="Consolas, 'Courier New', monospace" font-size="20">
    <text x="106" y="164">const focus = ['reverse', 'automation', 'tooling'];</text>
    <text x="106" y="194">const mood = 'cyber neon with practical energy';</text>
    <text x="1016" y="330">if (workflow.isUgly()) optimize();</text>
    <text x="1016" y="360">while (noise) shipUsefulThings();</text>
  </g>

  <g filter="url(#neonBlur)" opacity="0.65">
    <text x="118" y="218" fill="#7AF7F4" font-family="Segoe UI, Microsoft YaHei, sans-serif" font-size="108" font-weight="800" letter-spacing="8">SHERRYBX</text>
  </g>
  <text x="118" y="218" fill="#F8FAFC" font-family="Segoe UI, Microsoft YaHei, sans-serif" font-size="108" font-weight="800" letter-spacing="8">SHERRYBX</text>

  <rect x="118" y="246" width="430" height="4" rx="2" fill="url(#lineGrad)" />

  <text x="120" y="292" fill="#D1D5DB" font-family="Segoe UI, Microsoft YaHei, sans-serif" font-size="28" font-weight="600" letter-spacing="2.2">REVERSE · AUTOMATION · CREATOR TOOLS</text>
  <text x="120" y="334" fill="#94A3B8" font-family="Segoe UI, Microsoft YaHei, sans-serif" font-size="24" letter-spacing="1.2">Build fast. Break noise. Ship useful things.</text>
  <text x="120" y="372" fill="#94A3B8" font-family="Segoe UI, Microsoft YaHei, sans-serif" font-size="22" letter-spacing="1">逆向 · 自动化 · 创作工具 · 视觉表达</text>

  <g>
    <rect x="1022" y="118" width="114" height="42" rx="21" fill="#09111F" stroke="#7AF7F4" stroke-opacity="0.5" />
    <text x="1050" y="145" fill="#E6FFFD" font-family="Consolas, 'Courier New', monospace" font-size="20" font-weight="700">JS</text>

    <rect x="1152" y="118" width="114" height="42" rx="21" fill="#09111F" stroke="#9D7CFF" stroke-opacity="0.5" />
    <text x="1174" y="145" fill="#F1EBFF" font-family="Consolas, 'Courier New', monospace" font-size="20" font-weight="700">TS</text>

    <rect x="1282" y="118" width="114" height="42" rx="21" fill="#09111F" stroke="#FFB86C" stroke-opacity="0.5" />
    <text x="1306" y="145" fill="#FFF2E2" font-family="Consolas, 'Courier New', monospace" font-size="20" font-weight="700">PY</text>

    <rect x="1062" y="182" width="160" height="42" rx="21" fill="#09111F" stroke="#9D7CFF" stroke-opacity="0.4" />
    <text x="1090" y="209" fill="#ECE7FF" font-family="Consolas, 'Courier New', monospace" font-size="18" font-weight="700">CLOUDFLARE</text>

    <rect x="1240" y="182" width="178" height="42" rx="21" fill="#09111F" stroke="#7AF7F4" stroke-opacity="0.4" />
    <text x="1274" y="209" fill="#E6FFFD" font-family="Consolas, 'Courier New', monospace" font-size="18" font-weight="700">TAMPERMONKEY</text>
  </g>

  <g>
    <circle cx="1308" cy="316" r="62" stroke="#7AF7F4" stroke-opacity="0.28" stroke-width="2" />
    <circle cx="1308" cy="316" r="94" stroke="#9D7CFF" stroke-opacity="0.22" stroke-width="2" stroke-dasharray="9 10" />
    <circle cx="1308" cy="316" r="8" fill="#FFB86C" />
    <path d="M1308 222V276" stroke="#7AF7F4" stroke-opacity="0.46" stroke-width="2" stroke-dasharray="7 7" />
    <path d="M1402 316H1458" stroke="#9D7CFF" stroke-opacity="0.46" stroke-width="2" stroke-dasharray="7 7" />
    <path d="M1308 410V458" stroke="#FFB86C" stroke-opacity="0.36" stroke-width="2" stroke-dasharray="7 7" />
    <path d="M1214 316H1158" stroke="#7AF7F4" stroke-opacity="0.46" stroke-width="2" stroke-dasharray="7 7" />
  </g>
</svg>
