<svg width="1600" height="560" viewBox="0 0 1600 560" fill="none" xmlns="http://www.w3.org/2000/svg">
  <defs>
    <linearGradient id="bg" x1="80" y1="40" x2="1510" y2="540" gradientUnits="userSpaceOnUse">
      <stop stop-color="#040711" />
      <stop offset="0.45" stop-color="#081423" />
      <stop offset="1" stop-color="#170A2B" />
    </linearGradient>
    <linearGradient id="stroke" x1="246" y1="72" x2="1378" y2="470" gradientUnits="userSpaceOnUse">
      <stop stop-color="#7AF7F4" />
      <stop offset="0.52" stop-color="#9D7CFF" />
      <stop offset="1" stop-color="#FFB86C" />
    </linearGradient>
    <radialGradient id="glowA" cx="0" cy="0" r="1" gradientUnits="userSpaceOnUse" gradientTransform="translate(1256 112) rotate(117.642) scale(270 390)">
      <stop stop-color="#7AF7F4" stop-opacity="0.5" />
      <stop offset="1" stop-color="#7AF7F4" stop-opacity="0" />
    </radialGradient>
    <radialGradient id="glowB" cx="0" cy="0" r="1" gradientUnits="userSpaceOnUse" gradientTransform="translate(330 420) rotate(21.079) scale(320 250)">
      <stop stop-color="#9D7CFF" stop-opacity="0.38" />
      <stop offset="1" stop-color="#9D7CFF" stop-opacity="0" />
    </radialGradient>
    <radialGradient id="glowC" cx="0" cy="0" r="1" gradientUnits="userSpaceOnUse" gradientTransform="translate(1414 404) rotate(152.387) scale(220 160)">
      <stop stop-color="#FFB86C" stop-opacity="0.32" />
      <stop offset="1" stop-color="#FFB86C" stop-opacity="0" />
    </radialGradient>
    <filter id="blurBig" x="-120" y="-120" width="1840" height="800" filterUnits="userSpaceOnUse">
      <feGaussianBlur stdDeviation="34" />
    </filter>
    <filter id="blurText" x="0" y="0" width="1600" height="560" filterUnits="userSpaceOnUse">
      <feGaussianBlur stdDeviation="4.2" />
    </filter>
    <pattern id="grid" width="42" height="42" patternUnits="userSpaceOnUse">
      <path d="M42 0H0V42" stroke="#4B5563" stroke-opacity="0.18" stroke-width="1" />
    </pattern>
    <pattern id="scan" width="16" height="16" patternUnits="userSpaceOnUse">
      <path d="M0 0H16" stroke="#FFFFFF" stroke-opacity="0.03" stroke-width="1" />
    </pattern>
  </defs>

  <rect width="1600" height="560" rx="32" fill="url(#bg)" />
  <rect width="1600" height="560" rx="32" fill="url(#grid)" opacity="0.58" />
  <rect width="1600" height="560" rx="32" fill="url(#scan)" opacity="0.35" />
  <rect x="10" y="10" width="1580" height="540" rx="26" stroke="url(#stroke)" stroke-opacity="0.72" stroke-width="2" />

  <g filter="url(#blurBig)">
    <circle cx="1256" cy="112" r="148" fill="url(#glowA)" />
    <circle cx="330" cy="420" r="160" fill="url(#glowB)" />
    <circle cx="1414" cy="404" r="110" fill="url(#glowC)" />
  </g>

  <path d="M66 470C236 420 292 342 402 268C514 194 636 164 848 148C1088 130 1248 178 1534 80" stroke="url(#stroke)" stroke-opacity="0.24" stroke-width="3" />
  <path d="M80 500C266 446 376 324 520 292C658 262 802 288 936 320C1126 364 1278 360 1514 272" stroke="#7AF7F4" stroke-opacity="0.12" stroke-width="2" />
  <path d="M125 118H292" stroke="#7AF7F4" stroke-opacity="0.82" stroke-width="4" stroke-linecap="round" />
  <path d="M125 118V162" stroke="#7AF7F4" stroke-opacity="0.82" stroke-width="4" stroke-linecap="round" />
  <path d="M1308 96H1476" stroke="#FFB86C" stroke-opacity="0.82" stroke-width="4" stroke-linecap="round" />
  <path d="M1476 96V146" stroke="#FFB86C" stroke-opacity="0.82" stroke-width="4" stroke-linecap="round" />
  <path d="M124 414V458" stroke="#9D7CFF" stroke-opacity="0.82" stroke-width="4" stroke-linecap="round" />
  <path d="M124 458H290" stroke="#9D7CFF" stroke-opacity="0.82" stroke-width="4" stroke-linecap="round" />

  <g opacity="0.24" fill="#D1D5DB" font-family="Consolas, 'Courier New', monospace" font-size="20">
    <text x="136" y="182">const signal = ['reverse', 'automation', 'tooling'];</text>
    <text x="136" y="214">const tempo = 'fast iteration with visual force';</text>
    <text x="978" y="380">if (workflow.isUgly()) refactor();</text>
    <text x="978" y="412">while (friction) buildBetterTools();</text>
  </g>

  <g filter="url(#blurText)" opacity="0.72">
    <text x="138" y="282" fill="#7AF7F4" font-family="Segoe UI, Microsoft YaHei, sans-serif" font-size="128" font-weight="900" letter-spacing="10">Sherry</text>
  </g>
  <text x="138" y="282" fill="#F8FAFC" font-family="Segoe UI, Microsoft YaHei, sans-serif" font-size="128" font-weight="900" letter-spacing="10">Sherry</text>
  <text x="146" y="290" fill="#9D7CFF" fill-opacity="0.35" font-family="Segoe UI, Microsoft YaHei, sans-serif" font-size="128" font-weight="900" letter-spacing="10">Sherry</text>

  <rect x="138" y="320" width="476" height="5" rx="2.5" fill="url(#stroke)" />

  <text x="140" y="370" fill="#D1D5DB" font-family="Segoe UI, Microsoft YaHei, sans-serif" font-size="30" font-weight="700" letter-spacing="2.5">REVERSE ENGINEERING · AUTOMATION · CREATOR TOOLS</text>
  <text x="140" y="414" fill="#94A3B8" font-family="Segoe UI, Microsoft YaHei, sans-serif" font-size="25" letter-spacing="1.4">Build fast. Cut noise. Ship sharper tools.</text>
  <text x="140" y="452" fill="#94A3B8" font-family="Segoe UI, Microsoft YaHei, sans-serif" font-size="22" letter-spacing="1.1">逆向 · 自动化 · 工具设计 · 视觉表达</text>

  <g>
    <rect x="1082" y="122" width="128" height="44" rx="22" fill="#09111F" stroke="#7AF7F4" stroke-opacity="0.55" />
    <text x="1120" y="150" fill="#E6FFFD" font-family="Consolas, 'Courier New', monospace" font-size="20" font-weight="700">JS</text>

    <rect x="1228" y="122" width="128" height="44" rx="22" fill="#09111F" stroke="#9D7CFF" stroke-opacity="0.55" />
    <text x="1264" y="150" fill="#F0EAFF" font-family="Consolas, 'Courier New', monospace" font-size="20" font-weight="700">TS</text>

    <rect x="1374" y="122" width="128" height="44" rx="22" fill="#09111F" stroke="#FFB86C" stroke-opacity="0.55" />
    <text x="1410" y="150" fill="#FFF3E3" font-family="Consolas, 'Courier New', monospace" font-size="20" font-weight="700">PY</text>
  </g>

  <g>
    <rect x="1052" y="204" width="196" height="48" rx="24" fill="#09111F" stroke="#9D7CFF" stroke-opacity="0.45" />
    <text x="1090" y="234" fill="#F1EBFF" font-family="Consolas, 'Courier New', monospace" font-size="19" font-weight="700">CLOUDFLARE</text>

    <rect x="1266" y="204" width="238" height="48" rx="24" fill="#09111F" stroke="#7AF7F4" stroke-opacity="0.45" />
    <text x="1308" y="234" fill="#E6FFFD" font-family="Consolas, 'Courier New', monospace" font-size="19" font-weight="700">TAMPERMONKEY</text>
  </g>

  <g>
    <rect x="1028" y="304" width="390" height="136" rx="24" fill="#07101D" fill-opacity="0.72" stroke="url(#stroke)" stroke-opacity="0.26" />
    <text x="1060" y="344" fill="#7AF7F4" font-family="Consolas, 'Courier New', monospace" font-size="20" font-weight="700">MODE / ACTIVE</text>
    <text x="1060" y="378" fill="#D1D5DB" font-family="Consolas, 'Courier New', monospace" font-size="18">focus      :: automation systems</text>
    <text x="1060" y="406" fill="#D1D5DB" font-family="Consolas, 'Courier New', monospace" font-size="18">signal     :: reverse and rebuild</text>
    <text x="1060" y="434" fill="#D1D5DB" font-family="Consolas, 'Courier New', monospace" font-size="18">aesthetic  :: neon interface pressure</text>
  </g>

  <g>
    <circle cx="1436" cy="438" r="74" stroke="#7AF7F4" stroke-opacity="0.28" stroke-width="2" />
    <circle cx="1436" cy="438" r="108" stroke="#9D7CFF" stroke-opacity="0.22" stroke-width="2" stroke-dasharray="10 10" />
    <circle cx="1436" cy="438" r="10" fill="#FFB86C" />
    <path d="M1436 330V374" stroke="#7AF7F4" stroke-opacity="0.42" stroke-width="2" stroke-dasharray="7 7" />
    <path d="M1544 438H1590" stroke="#9D7CFF" stroke-opacity="0.42" stroke-width="2" stroke-dasharray="7 7" />
    <path d="M1436 546V500" stroke="#FFB86C" stroke-opacity="0.32" stroke-width="2" stroke-dasharray="7 7" />
    <path d="M1328 438H1282" stroke="#7AF7F4" stroke-opacity="0.42" stroke-width="2" stroke-dasharray="7 7" />
  </g>
</svg>

