<svg width="1600" height="900" viewBox="0 0 1600 900" fill="none" xmlns="http://www.w3.org/2000/svg">
  <rect width="1600" height="900" rx="38" fill="#F6F2EA"/>
  <rect x="28" y="28" width="1544" height="844" rx="28" stroke="#CCD4DC" stroke-width="2"/>
  <rect x="74" y="74" width="1452" height="752" rx="14" stroke="#E1E6EB" stroke-width="1.5"/>

  <g opacity="0.75">
    <path d="M118 128H1482" stroke="#DCE2E8" stroke-width="1.5"/>
    <path d="M118 236H1482" stroke="#E5EAEE" stroke-width="1.5"/>
    <path d="M118 344H1482" stroke="#DCE2E8" stroke-width="1.5"/>
    <path d="M118 452H1482" stroke="#E5EAEE" stroke-width="1.5"/>
    <path d="M118 560H1482" stroke="#DCE2E8" stroke-width="1.5"/>
    <path d="M118 668H1482" stroke="#E5EAEE" stroke-width="1.5"/>
    <path d="M118 776H1482" stroke="#DCE2E8" stroke-width="1.5"/>
    <path d="M254 128V776" stroke="#E2E7EC" stroke-width="1.5"/>
    <path d="M446 128V776" stroke="#D9E1E8" stroke-width="1.5"/>
    <path d="M638 128V776" stroke="#E2E7EC" stroke-width="1.5"/>
    <path d="M830 128V776" stroke="#D9E1E8" stroke-width="1.5"/>
    <path d="M1022 128V776" stroke="#E2E7EC" stroke-width="1.5"/>
    <path d="M1214 128V776" stroke="#D9E1E8" stroke-width="1.5"/>
  </g>

  <g>
    <circle cx="96" cy="96" r="7" fill="#758A9F"/>
    <circle cx="1504" cy="96" r="7" fill="#758A9F"/>
    <circle cx="96" cy="804" r="7" fill="#D6DDE5"/>
    <circle cx="1504" cy="804" r="7" fill="#D6DDE5"/>
  </g>

  <g>
    <text x="120" y="110" fill="#6A7785" font-family="Inter, Arial, sans-serif" font-size="19" letter-spacing="5">ATELIER / PROFILE SURFACE / 01</text>
    <text x="120" y="274" fill="#1C2733" font-family="Georgia, 'Times New Roman', serif" font-size="140">Sherry</text>
    <text x="126" y="346" fill="#344354" font-family="Inter, Arial, sans-serif" font-size="29" letter-spacing="6">LINEWORK / POISE / INTERACTION / A LITTLE MISCHIEF</text>
    <text x="126" y="454" fill="#2A3746" font-family="Inter, Arial, sans-serif" font-size="34">I like pages that carry their own geometry, hold tension quietly,</text>
    <text x="126" y="500" fill="#2A3746" font-family="Inter, Arial, sans-serif" font-size="34">and reveal a playful layer after the elegant one settles in.</text>
  </g>

  <g>
    <path d="M126 612H706" stroke="#8EA1B4" stroke-width="2.5"/>
    <path d="M126 654H614" stroke="#D1D9E1" stroke-width="2"/>
    <path d="M126 696H666" stroke="#D1D9E1" stroke-width="2"/>
    <path d="M126 738H566" stroke="#D1D9E1" stroke-width="2"/>
    <rect x="126" y="648" width="14" height="14" rx="7" fill="#758A9F"/>
    <rect x="646" y="638" width="60" height="60" rx="12" fill="#EEF2F5" stroke="#C9D1DA" stroke-width="2"/>
    <path d="M646 668H706" stroke="#C9D1DA" stroke-width="2"/>
    <path d="M676 638V698" stroke="#C9D1DA" stroke-width="2"/>
  </g>

  <g>
    <rect x="912" y="132" width="512" height="612" rx="42" fill="#FBF8F2" stroke="#C8D0D9" stroke-width="2"/>
    <rect x="958" y="178" width="420" height="520" rx="30" stroke="#8DA0B3" stroke-width="3"/>
    <rect x="994" y="214" width="348" height="448" rx="22" stroke="#D6DDE4" stroke-width="2"/>
    <circle cx="1168" cy="438" r="146" stroke="#223141" stroke-width="3"/>
    <circle cx="1168" cy="438" r="102" stroke="#7B8FA4" stroke-width="3"/>
    <circle cx="1168" cy="438" r="54" stroke="#CBD5DE" stroke-width="2"/>
    <circle cx="1168" cy="438" r="18" fill="#7B8FA4"/>
    <path d="M912 438H1424" stroke="#D2D9E0" stroke-width="2"/>
    <path d="M1168 132V744" stroke="#D2D9E0" stroke-width="2"/>
    <path d="M1040 310L1296 566" stroke="#DDE3E8" stroke-width="2"/>
    <path d="M1296 310L1040 566" stroke="#DDE3E8" stroke-width="2"/>
    <path d="M996 642C1058 586 1113 558 1168 558C1223 558 1278 586 1340 642" stroke="#A7B5C2" stroke-width="2"/>
    <path d="M998 214C1092 252 1246 252 1340 214" stroke="#D8E0E7" stroke-width="2"/>
    <path d="M998 664C1088 624 1248 624 1338 664" stroke="#D8E0E7" stroke-width="2"/>
    <rect x="876" y="96" width="72" height="72" rx="16" fill="#7B8FA4"/>
    <rect x="1376" y="652" width="92" height="92" rx="20" fill="#EEF2F5" stroke="#C8D0D9" stroke-width="2"/>
    <path d="M1376 698H1468" stroke="#C8D0D9" stroke-width="2"/>
    <path d="M1422 652V744" stroke="#C8D0D9" stroke-width="2"/>
    <path d="M1022 244H1316" stroke="#CBD4DD" stroke-width="1.5"/>
    <path d="M1022 632H1316" stroke="#CBD4DD" stroke-width="1.5"/>
  </g>

  <g>
    <text x="920" y="812" fill="#697685" font-family="Inter, Arial, sans-serif" font-size="18" letter-spacing="4">SURFACE INDEX / 09  /  CALM FRAME  /  HIDDEN PLAY</text>
  </g>
</svg>
